# xmcd
#
# Track frame offsets:
# 150
# 19252
# 32380
# 45713
# 55245
#
# Disc length: 890 seconds
#
# Revision: 1
# Processed by: cddbd v1.5.2PL0 Copyright (c) Steve Scherf et al.
# Submitted via: CedeCatalogueitor 2.6.0.6 http://personales.ya.com/cdcatalogueitor
#
DISCID=36037805
DTITLE=The Rodeo - Hotel Utah
DYEAR=1900
DGENRE=
TTITLE0=On The Radio
TTITLE1=I'll Catch The Following Train
TTITLE2=Cha Cha Cha
TTITLE3=Her's The Light
TTITLE4=Amazing
EXTD=
EXTT0=
EXTT1=
EXTT2=
EXTT3=
EXTT4=
PLAYORDER=
